<?xml version="1.0" encoding="utf-8" ?>
<svg xmlns="http://www.w3.org/2000/svg" xmlns:xlink="http://www.w3.org/1999/xlink" width="2070" height="1035">
	<g>
		<path fill="white" transform="scale(1.01074 1.01074)" d="M1200.06 317.962Q1202.61 317.59 1205.17 317.344Q1207.74 317.097 1210.31 316.977Q1212.88 316.857 1215.46 316.863Q1218.03 316.868 1220.6 317.001Q1223.18 317.133 1225.74 317.391Q1228.3 317.649 1230.85 318.033Q1233.39 318.416 1235.92 318.924Q1238.44 319.432 1240.94 320.063Q1243.44 320.694 1245.9 321.447Q1248.36 322.2 1250.79 323.073Q1253.21 323.945 1255.59 324.936Q1257.97 325.926 1260.29 327.032Q1262.62 328.138 1264.89 329.356Q1267.16 330.575 1269.36 331.903Q1271.57 333.232 1273.71 334.667Q1275.85 336.102 1277.91 337.64Q1279.98 339.178 1281.96 340.815Q1283.95 342.453 1285.86 344.186Q1287.76 345.919 1289.58 347.743Q1291.4 349.568 1293.12 351.479Q1294.85 353.39 1296.48 355.384Q1298.11 357.378 1299.64 359.449Q1301.17 361.52 1302.6 363.664Q1304.03 365.808 1305.35 368.019Q1306.67 370.23 1307.88 372.503Q1309.09 374.777 1310.19 377.107Q1311.28 379.437 1312.27 381.818Q1313.25 384.198 1314.11 386.625Q1314.98 389.051 1315.72 391.517Q1316.46 393.982 1317.09 396.481Q1317.71 398.981 1318.21 401.507Q1318.71 404.034 1319.08 406.582Q1319.45 409.13 1319.7 411.694Q1319.95 414.257 1320.08 416.83Q1320.2 419.403 1320.19 421.978Q1320.19 424.554 1320.06 427.126Q1319.93 429.698 1319.68 432.261Q1319.42 434.824 1319.04 437.371Q1318.66 439.919 1318.15 442.444Q1317.65 444.97 1317.02 447.467Q1316.39 449.965 1315.64 452.429Q1314.89 454.893 1314.02 457.317Q1313.15 459.741 1312.16 462.119Q1311.17 464.498 1310.07 466.825Q1308.96 469.152 1307.75 471.422Q1306.53 473.692 1305.21 475.9Q1303.88 478.108 1302.45 480.248Q1301.01 482.388 1299.48 484.456Q1297.94 486.523 1296.31 488.512Q1294.67 490.502 1292.94 492.409Q1291.21 494.316 1289.38 496.135Q1287.56 497.955 1285.65 499.683Q1283.74 501.411 1281.75 503.043Q1279.76 504.676 1277.69 506.208Q1275.62 507.741 1273.47 509.17Q1271.33 510.6 1269.12 511.922Q1266.91 513.245 1264.64 514.458Q1262.37 515.67 1260.04 516.77Q1257.71 517.87 1255.33 518.854Q1252.95 519.838 1250.52 520.704Q1248.1 521.57 1245.63 522.317Q1243.17 523.063 1240.67 523.687Q1238.17 524.312 1235.64 524.813Q1233.12 525.314 1230.57 525.691Q1228.02 526.068 1225.45 526.319Q1222.89 526.57 1220.31 526.695Q1217.74 526.82 1215.16 526.819Q1212.58 526.817 1210 526.689Q1207.43 526.561 1204.86 526.306Q1202.3 526.052 1199.75 525.671Q1197.2 525.291 1194.67 524.786Q1192.14 524.281 1189.64 523.653Q1187.14 523.025 1184.67 522.274Q1182.2 521.524 1179.78 520.653Q1177.35 519.782 1174.97 518.794Q1172.59 517.805 1170.26 516.7Q1167.93 515.596 1165.65 514.378Q1163.38 513.161 1161.17 511.833Q1158.96 510.506 1156.82 509.071Q1154.68 507.636 1152.61 506.098Q1150.54 504.56 1148.54 502.923Q1146.55 501.285 1144.64 499.551Q1142.74 497.818 1140.91 495.993Q1139.09 494.167 1137.36 492.255Q1135.63 490.343 1134 488.348Q1132.37 486.353 1130.83 484.28Q1129.3 482.207 1127.87 480.061Q1126.44 477.916 1125.12 475.703Q1123.79 473.489 1122.58 471.214Q1121.37 468.938 1120.27 466.606Q1119.17 464.274 1118.19 461.89Q1117.2 459.507 1116.34 457.078Q1115.47 454.649 1114.73 452.181Q1113.98 449.712 1113.36 447.21Q1112.73 444.708 1112.23 442.179Q1111.73 439.649 1111.36 437.098Q1110.99 434.547 1110.74 431.98Q1110.49 429.414 1110.36 426.838Q1110.24 424.263 1110.25 421.684Q1110.25 419.105 1110.38 416.53Q1110.51 413.955 1110.77 411.389Q1111.02 408.823 1111.41 406.273Q1111.79 403.723 1112.3 401.195Q1112.8 398.667 1113.43 396.166Q1114.06 393.666 1114.82 391.2Q1115.57 388.734 1116.44 386.307Q1117.31 383.881 1118.31 381.5Q1119.3 379.12 1120.4 376.791Q1121.51 374.461 1122.73 372.19Q1123.95 369.918 1125.28 367.708Q1126.61 365.499 1128.04 363.358Q1129.48 361.216 1131.02 359.148Q1132.56 357.08 1134.2 355.089Q1135.84 353.099 1137.57 351.192Q1139.31 349.285 1141.14 347.465Q1142.96 345.645 1144.88 343.917Q1146.79 342.189 1148.79 340.557Q1150.79 338.926 1152.86 337.394Q1154.93 335.862 1157.08 334.434Q1159.23 333.005 1161.44 331.684Q1163.66 330.363 1165.93 329.153Q1168.21 327.942 1170.54 326.844Q1172.88 325.747 1175.26 324.765Q1177.65 323.784 1180.07 322.92Q1182.5 322.057 1184.97 321.314Q1187.44 320.571 1189.95 319.95Q1192.45 319.329 1194.98 318.832Q1197.51 318.334 1200.06 317.962Z"/>
		<path fill="white" transform="scale(1.01074 1.01074)" d="M796.713 318.401C821.041 315.068 847.479 323.759 867.577 337.028Q862.86 339.529 858.338 342.368C838.866 354.655 824.191 373.37 819.14 396.073Q818.921 397.084 818.726 398.101Q818.532 399.118 818.363 400.139Q818.193 401.16 818.049 402.185Q817.905 403.209 817.786 404.238Q817.667 405.266 817.574 406.296Q817.48 407.327 817.412 408.36Q817.344 409.393 817.301 410.427Q817.258 411.461 817.241 412.496Q817.224 413.531 817.232 414.565Q817.24 415.6 817.273 416.635Q817.307 417.669 817.366 418.703Q817.425 419.736 817.509 420.767Q817.594 421.799 817.703 422.828Q817.813 423.857 817.948 424.883Q818.083 425.909 818.243 426.932Q818.404 427.954 818.589 428.973Q818.774 429.991 818.984 431.004Q819.195 432.018 819.43 433.026Q819.665 434.034 819.925 435.035Q820.185 436.037 820.469 437.032Q820.754 438.027 821.062 439.015Q821.371 440.003 821.704 440.983Q822.037 441.963 822.394 442.935Q822.751 443.906 823.132 444.868Q823.513 445.831 823.917 446.783Q824.321 447.736 824.749 448.679Q825.177 449.621 825.627 450.553Q826.078 451.484 826.552 452.405Q827.025 453.325 827.521 454.234Q828.017 455.142 828.535 456.038Q829.053 456.934 829.593 457.817Q830.133 458.7 830.695 459.569C842.531 477.952 860.78 490.296 882.092 494.856C868.341 509.017 851.634 518.146 832.782 523.592C828.356 524.471 823.927 525.432 819.436 525.917Q818.103 526.069 816.766 526.188Q815.43 526.307 814.091 526.393Q812.752 526.479 811.412 526.532Q810.071 526.586 808.729 526.606Q807.388 526.627 806.046 526.614Q804.705 526.602 803.364 526.557Q802.023 526.512 800.684 526.433Q799.344 526.355 798.007 526.245Q796.67 526.134 795.336 525.99Q794.002 525.846 792.672 525.67Q791.342 525.494 790.017 525.285Q788.691 525.076 787.371 524.835Q786.052 524.594 784.738 524.32Q783.425 524.047 782.118 523.741Q780.812 523.435 779.513 523.098Q778.215 522.76 776.925 522.391Q775.635 522.022 774.355 521.621Q773.074 521.22 771.804 520.788Q770.534 520.356 769.274 519.893Q768.015 519.43 766.768 518.937Q765.52 518.443 764.285 517.919Q763.05 517.395 761.828 516.84Q760.606 516.286 759.398 515.702Q758.191 515.118 756.997 514.505Q755.804 513.891 754.626 513.249Q753.448 512.606 752.287 511.935Q751.125 511.264 749.98 510.564Q748.835 509.865 747.708 509.137Q746.58 508.41 745.471 507.655Q744.362 506.901 743.271 506.119Q742.181 505.337 741.11 504.529Q740.039 503.721 738.988 502.887Q737.98 502.088 736.992 501.264Q736.005 500.44 735.038 499.592Q734.07 498.744 733.125 497.872Q732.179 497.001 731.255 496.106Q730.33 495.211 729.429 494.294Q728.527 493.377 727.648 492.438Q726.769 491.499 725.913 490.538Q725.058 489.578 724.226 488.596Q723.395 487.615 722.588 486.613Q721.78 485.612 720.998 484.591Q720.216 483.57 719.459 482.53Q718.702 481.49 717.972 480.431Q717.241 479.373 716.536 478.297Q715.831 477.22 715.154 476.127Q714.476 475.034 713.825 473.925Q713.174 472.815 712.551 471.69Q711.928 470.565 711.333 469.424Q710.738 468.284 710.171 467.129Q709.604 465.975 709.065 464.807Q708.527 463.638 708.018 462.457Q707.508 461.276 707.028 460.083Q706.548 458.889 706.098 457.685Q705.647 456.48 705.227 455.264Q704.806 454.049 704.416 452.823Q704.025 451.598 703.665 450.363Q703.305 449.128 702.975 447.885Q702.645 446.641 702.346 445.39Q702.047 444.139 701.779 442.881Q701.511 441.623 701.275 440.359Q701.038 439.095 700.832 437.825Q700.626 436.555 700.452 435.281Q700.278 434.006 700.135 432.728Q700.001 431.483 699.898 430.234Q699.795 428.986 699.723 427.735Q699.651 426.485 699.609 425.233Q699.568 423.981 699.558 422.728Q699.548 421.476 699.568 420.223Q699.589 418.971 699.641 417.719Q699.693 416.468 699.775 415.218Q699.858 413.968 699.972 412.721Q700.085 411.473 700.229 410.229Q700.374 408.985 700.549 407.745Q700.724 406.504 700.93 405.269Q701.135 404.033 701.372 402.803Q701.608 401.573 701.874 400.349Q702.141 399.125 702.438 397.908Q702.734 396.691 703.061 395.482Q703.388 394.273 703.745 393.072Q704.101 391.871 704.487 390.68Q704.873 389.488 705.289 388.306Q705.704 387.125 706.149 385.954Q706.594 384.783 707.067 383.623Q707.541 382.463 708.042 381.316Q708.544 380.168 709.075 379.033Q709.605 377.898 710.163 376.777Q710.721 375.656 711.307 374.548Q711.892 373.441 712.505 372.349Q713.118 371.256 713.758 370.179Q714.398 369.102 715.064 368.042Q715.73 366.981 716.422 365.937Q717.114 364.893 717.832 363.866Q718.55 362.84 719.293 361.832Q720.036 360.823 720.803 359.833Q721.571 358.843 722.363 357.873C741.037 334.992 767.433 321.294 796.713 318.401Z"/>
		<path fill="white" transform="scale(1.01074 1.01074)" d="M935.335 318.854L1122.76 318.692C1120.38 322.787 1111.98 326.995 1107.78 329.805L1069.66 355.363C1046.36 371.04 1022.91 385.99 1012.31 413.418C1003.71 435.687 1006.21 458.123 1015.75 479.537C1026.43 499.506 1044.05 516.339 1066.22 522.736C1071.69 524.315 1079.68 524.641 1084.41 527.49C1084.55 527.572 1084.68 527.662 1084.81 527.748L935.361 527.779L935.335 318.854Z"/>
		<path fill="white" transform="scale(1.01074 1.01074)" d="M1272.95 576.13Q1273.73 575.992 1274.52 575.893Q1275.31 575.794 1276.11 575.735Q1276.9 575.675 1277.7 575.654Q1278.49 575.634 1279.29 575.652Q1280.08 575.671 1280.88 575.729Q1281.67 575.787 1282.46 575.884Q1283.25 575.981 1284.03 576.116Q1284.82 576.252 1285.59 576.426Q1286.37 576.601 1287.14 576.813Q1287.9 577.026 1288.66 577.276Q1289.41 577.526 1290.16 577.812Q1290.9 578.099 1291.63 578.423Q1292.35 578.746 1293.06 579.105Q1293.77 579.463 1294.47 579.857Q1295.16 580.25 1295.83 580.677Q1296.5 581.104 1297.15 581.563Q1297.8 582.023 1298.43 582.514Q1299.05 583.005 1299.65 583.526Q1300.25 584.048 1300.83 584.598Q1301.4 585.148 1301.95 585.727Q1302.5 586.305 1303.02 586.909Q1303.53 587.513 1304.02 588.142Q1304.51 588.772 1304.96 589.424Q1305.42 590.076 1305.84 590.75Q1306.26 591.425 1306.65 592.119Q1307.04 592.813 1307.4 593.525Q1307.75 594.238 1308.07 594.967Q1308.39 595.696 1308.67 596.44Q1308.95 597.184 1309.2 597.941Q1309.44 598.698 1309.65 599.466Q1309.86 600.234 1310.03 601.012Q1310.2 601.789 1310.33 602.574Q1310.46 603.359 1310.55 604.149Q1310.65 604.94 1310.7 605.733Q1310.75 606.527 1310.77 607.323Q1310.78 608.119 1310.75 608.914Q1310.73 609.709 1310.66 610.502Q1310.6 611.295 1310.5 612.084Q1310.39 612.873 1310.25 613.656Q1310.11 614.439 1309.93 615.214Q1309.74 615.989 1309.53 616.754Q1309.31 617.519 1309.05 618.272Q1308.79 619.025 1308.5 619.765Q1308.21 620.505 1307.88 621.229Q1307.55 621.953 1307.18 622.66Q1306.82 623.367 1306.42 624.056Q1306.02 624.744 1305.59 625.412Q1305.16 626.08 1304.69 626.725Q1304.23 627.371 1303.73 627.993Q1303.23 628.615 1302.71 629.212Q1302.18 629.808 1301.62 630.378Q1301.07 630.948 1300.49 631.49Q1299.9 632.032 1299.3 632.545Q1298.69 633.057 1298.05 633.539Q1297.42 634.021 1296.76 634.471Q1296.11 634.921 1295.43 635.338Q1294.75 635.755 1294.06 636.138Q1293.36 636.521 1292.64 636.87Q1291.93 637.218 1291.2 637.531Q1290.46 637.843 1289.72 638.119Q1288.97 638.395 1288.21 638.634Q1287.45 638.873 1286.68 639.074Q1285.91 639.276 1285.13 639.439Q1284.36 639.602 1283.57 639.726Q1282.79 639.849 1282.01 639.934Q1281.23 640.019 1280.44 640.066Q1279.66 640.113 1278.87 640.121Q1278.08 640.129 1277.29 640.099Q1276.51 640.069 1275.72 640Q1274.94 639.932 1274.16 639.825Q1273.38 639.719 1272.61 639.574Q1271.83 639.429 1271.07 639.247Q1270.3 639.065 1269.54 638.846Q1268.79 638.626 1268.04 638.37Q1267.3 638.114 1266.57 637.822Q1265.84 637.53 1265.12 637.203Q1264.41 636.875 1263.71 636.514Q1263.01 636.152 1262.33 635.756Q1261.65 635.361 1260.99 634.932Q1260.33 634.504 1259.69 634.044Q1259.05 633.584 1258.43 633.093Q1257.82 632.602 1257.23 632.082Q1256.64 631.562 1256.07 631.014Q1255.51 630.466 1254.97 629.89Q1254.43 629.315 1253.92 628.714Q1253.41 628.113 1252.94 627.489Q1252.46 626.864 1252.01 626.216Q1251.56 625.569 1251.15 624.9Q1250.73 624.231 1250.35 623.543Q1249.97 622.855 1249.62 622.149Q1249.27 621.443 1248.96 620.721Q1248.64 619.999 1248.36 619.263Q1248.09 618.526 1247.85 617.777Q1247.6 617.028 1247.4 616.268Q1247.19 615.508 1247.03 614.739Q1246.86 613.969 1246.73 613.193Q1246.6 612.417 1246.51 611.635Q1246.42 610.853 1246.36 610.068Q1246.31 609.282 1246.3 608.495Q1246.28 607.708 1246.3 606.921Q1246.33 606.135 1246.39 605.35Q1246.45 604.565 1246.55 603.784Q1246.65 603.004 1246.79 602.229Q1246.93 601.454 1247.1 600.686Q1247.28 599.919 1247.49 599.161Q1247.7 598.403 1247.95 597.657Q1248.2 596.91 1248.49 596.177Q1248.78 595.443 1249.1 594.725Q1249.42 594.006 1249.77 593.304Q1250.13 592.602 1250.52 591.918Q1250.91 591.234 1251.33 590.57Q1251.76 589.906 1252.21 589.264Q1252.66 588.621 1253.15 588.001Q1253.64 587.382 1254.15 586.786Q1254.67 586.191 1255.21 585.622Q1255.75 585.052 1256.32 584.51Q1256.89 583.968 1257.49 583.454Q1258.09 582.941 1258.71 582.457Q1259.33 581.973 1259.97 581.52Q1260.62 581.067 1261.28 580.645Q1261.95 580.224 1262.63 579.836Q1263.32 579.448 1264.02 579.094Q1264.72 578.74 1265.44 578.42Q1266.16 578.1 1266.89 577.816Q1267.63 577.532 1268.38 577.284Q1269.12 577.036 1269.88 576.825Q1270.64 576.614 1271.41 576.44Q1272.17 576.266 1272.95 576.13ZM1282.27 629.802C1286.46 628.444 1288.94 626.32 1291.02 622.397C1294.81 615.223 1295.16 605.602 1292.64 597.96C1291.13 593.395 1288.07 588.77 1283.6 586.669C1279.87 584.913 1275.68 585.617 1271.82 586.498C1265.39 592.974 1263.18 599.427 1263.21 608.6C1263.23 614.628 1264.38 622.843 1269.02 627.197C1271.75 629.754 1275.8 630.66 1279.45 630.419C1280.46 630.352 1281.33 630.206 1282.27 629.802Z"/>
		<path fill="white" transform="scale(1.01074 1.01074)" d="M1135.97 558.493C1136.94 558.295 1137.85 558.137 1138.84 558.087C1154.35 557.297 1177.17 554.506 1189.54 565.947Q1189.98 566.36 1190.4 566.795Q1190.82 567.229 1191.22 567.685Q1191.62 568.14 1191.99 568.614Q1192.36 569.089 1192.71 569.582Q1193.06 570.075 1193.39 570.585Q1193.71 571.095 1194.01 571.62Q1194.31 572.146 1194.58 572.686Q1194.85 573.225 1195.09 573.778Q1195.34 574.331 1195.55 574.896Q1195.77 575.46 1195.96 576.035Q1196.14 576.609 1196.3 577.192Q1196.46 577.776 1196.59 578.366Q1196.71 578.957 1196.81 579.553Q1196.91 580.149 1196.98 580.749Q1197.05 581.35 1197.08 581.953Q1197.12 582.556 1197.13 583.16C1197.23 589.468 1194.83 595.291 1190.38 599.762C1181.98 608.214 1170.95 609.133 1159.75 609.032L1157.7 609.427C1153.72 616.185 1157.93 631.043 1159.67 638.198C1159.12 638.563 1158.92 638.75 1158.19 638.908C1154.63 639.675 1140.46 639.71 1137.62 638.065C1138.41 634.892 1139.75 632.066 1140.1 628.785C1141.42 616.381 1140.1 602.869 1139.99 590.342C1139.93 583.583 1140.7 576.77 1140.39 570.037C1140.17 565.225 1139.65 561.842 1135.97 558.493ZM1173.35 595.782C1176.73 593.633 1178.92 589.412 1179.81 585.562C1180.58 582.188 1179.76 578.43 1177.89 575.554C1175.41 571.737 1171.11 568.211 1166.57 567.313C1163.46 566.698 1159.74 567.229 1156.59 567.496L1156.69 568.486C1157.58 578.198 1154.85 589.484 1157.56 598.769C1159.36 600.279 1160.79 600.476 1163.11 600.303C1166.51 600.051 1169.67 599.033 1172.5 597.161L1173.35 595.782Z"/>
		<path fill="white" transform="scale(1.01074 1.01074)" d="M798.843 577.204L800.289 577.122C808.207 576.712 816.737 577.027 822.887 582.755C834.825 593.873 828.139 613.8 829.222 627.912C829.493 631.445 832.497 633.771 832.602 637.514C831.57 639.023 830.484 639.684 828.746 640.291C825.828 641.311 823.247 639.943 820.611 638.72C815.781 636.479 814.91 634.661 813.089 629.743C809.522 633.559 805.645 637.137 800.621 638.893C794.14 641.157 788.802 639.294 782.928 636.38C782.148 635.714 781.421 635.023 780.72 634.273C777.696 631.038 775.531 626.414 775.757 621.922C776.745 602.271 806.822 603.852 812.17 598.962C812.32 596.875 812.332 596.297 811.273 594.383C809.679 591.503 806.152 589.113 803.019 588.256C795.068 586.08 787.176 590.971 780.534 594.773L779.609 593.055C780.303 591.398 781.218 589.859 782.133 588.314C786.491 580.951 790.665 579.263 798.843 577.204ZM801.033 630.122C807.289 627.11 810.693 624.24 812.968 617.435C813.704 615.233 813.626 613.423 813.097 611.188C811.597 609.186 811.22 608.141 808.565 607.894C807.133 607.76 805.431 608.066 803.998 608.216C798.764 610.305 795.332 612.052 792.988 617.407C791.985 619.698 791.656 622.242 792.675 624.595C793.71 626.987 795.677 628.561 798.102 629.371C799.066 629.692 800.039 629.923 801.033 630.122Z"/>
		<path fill="white" transform="scale(1.01074 1.01074)" d="M1093.34 577.493C1099.06 576.614 1105.58 576.121 1111.19 577.815C1134.61 584.889 1118.19 621.263 1127.01 637.666L1127.49 638.534C1126.81 638.865 1126.22 639.133 1125.48 639.325C1119.43 640.907 1116.71 638.981 1111.65 636.019C1103.96 631.517 1101.62 637.619 1094.45 639.275C1087.46 640.89 1081.04 637.725 1075.31 634.097C1073.35 628.852 1071.91 624.518 1072.89 618.837C1075.64 602.888 1097.41 607.736 1107.56 600.42C1107.98 596.866 1107.79 592.824 1105.3 589.986C1097 580.515 1082.93 595.401 1077.12 595.319C1077.47 592.556 1077.57 588.361 1079.39 586.132C1079.57 585.909 1079.78 585.707 1079.97 585.492C1083.44 581.59 1088.67 579.65 1093.34 577.493ZM1092.22 627.944C1096.45 628.28 1101.26 629.064 1104.76 626.049C1107.13 624.012 1108.97 620.181 1109.07 617.074C1109.18 613.871 1108.39 611.07 1106.79 608.32C1105.25 608.197 1104 608.216 1102.48 608.486C1098.15 610.432 1091.06 613.498 1089.25 618.294C1088.55 620.165 1088.66 622.537 1089.57 624.313C1090.25 625.638 1091.21 626.863 1092.22 627.944Z"/>
		<path fill="white" transform="scale(1.01074 1.01074)" d="M957.475 577.17Q960.31 576.985 963.149 576.893C970.008 576.693 977.09 578.249 982.15 583.187C989.099 589.969 989.319 599.066 989.332 608.089C979.014 608.486 958.501 605.509 949.728 608.906C948.864 611.418 949.365 613.472 950.155 615.912C951.641 620.498 955.746 624.444 960.019 626.539C968.467 630.681 977.412 628.75 985.828 625.792L987.979 624.723L988.709 625.526C988.493 626.257 988.449 626.514 988.156 627.165C985.696 632.633 980.495 636.221 974.97 638.084C966.738 640.86 956.585 640.34 948.812 636.378Q948.161 636.051 947.528 635.692Q946.894 635.332 946.28 634.942Q945.665 634.551 945.071 634.13Q944.477 633.709 943.904 633.259Q943.332 632.808 942.783 632.33Q942.234 631.852 941.709 631.346Q941.185 630.841 940.686 630.31Q940.188 629.779 939.717 629.223Q939.246 628.668 938.803 628.09Q938.36 627.511 937.947 626.912Q937.534 626.312 937.152 625.692Q936.769 625.072 936.418 624.434Q936.067 623.796 935.749 623.141Q935.43 622.486 935.145 621.816Q934.86 621.146 934.609 620.462Q934.358 619.778 934.141 619.083Q933.889 618.3 933.676 617.507Q933.463 616.713 933.289 615.909Q933.114 615.106 932.979 614.295Q932.844 613.485 932.749 612.668Q932.654 611.852 932.598 611.032Q932.543 610.212 932.527 609.39Q932.511 608.568 932.536 607.746Q932.56 606.925 932.625 606.105Q932.689 605.286 932.793 604.471Q932.897 603.655 933.041 602.846Q933.185 602.037 933.368 601.235Q933.551 600.434 933.772 599.643Q933.994 598.851 934.254 598.071Q934.514 597.292 934.812 596.525Q935.109 595.759 935.444 595.008Q935.778 594.258 936.149 593.524C940.812 584.512 948.109 580.167 957.475 577.17ZM948.445 600.06L966.25 600.045C969.414 599.956 970.517 600.338 973.041 598.32C973.64 595.693 973.904 594.032 972.323 591.617C970.438 588.737 967.428 585.752 963.927 585.114C962.021 584.766 959.983 584.898 958.056 585.014C951.363 589.287 950.416 592.735 948.445 600.06Z"/>
		<path fill="white" transform="scale(1.01074 1.01074)" d="M734.844 558.223C746.724 556.722 757.175 558.368 768.559 561.743C768.753 568.966 768.658 576.114 768.375 583.334C766.634 580.311 764.862 577.219 762.48 574.646C757.901 569.7 751.156 566.313 744.373 566.241C737.239 566.166 730.492 569.194 725.517 574.244C719.058 580.802 716.337 589.883 716.387 598.936C716.432 607.236 718.678 615.917 724.813 621.835C732.235 628.995 741.649 629.989 751.417 629.83C756.187 628.995 763.51 624.105 767.741 624.789C767.786 624.937 767.836 625.083 767.876 625.233C768.536 627.686 767.975 630.281 766.715 632.452C764.5 636.269 761.241 636.917 757.159 638.015C744.001 641.555 729.462 640.685 717.616 633.66C708.681 628.361 702.307 619.937 699.945 609.79C697.427 598.969 699.049 585.983 705.089 576.55C711.926 565.871 722.835 560.753 734.844 558.223Z"/>
		<path fill="white" transform="scale(1.01074 1.01074)" d="M1060.03 577.486C1062.17 577.23 1065.03 576.61 1067.12 577.118C1068.33 577.413 1068.97 577.451 1069.56 578.587C1071.06 581.455 1069.42 587.972 1068.54 591.038C1065.64 593.343 1061.54 591.144 1057.75 592.257C1054.64 593.171 1051.35 595.902 1050.1 598.92C1047.5 605.218 1048.25 629.663 1051.19 635.753C1051.61 636.61 1051.9 637.434 1052.21 638.333C1044.76 639.371 1037.01 638.919 1029.51 638.832C1030.92 636.744 1032.16 634.623 1032.59 632.112C1033.87 624.64 1034.4 591.189 1032.61 584.528C1031.87 581.766 1030.04 581.512 1030.19 578.171C1030.97 577.694 1031.82 577.251 1032.74 577.085C1036.19 576.459 1042.63 578.191 1045.3 580.405C1047.69 582.393 1048.07 585.346 1048.48 588.228C1052.31 584.06 1055.1 580.533 1060.03 577.486Z"/>
		<path fill="white" transform="scale(1.01074 1.01074)" d="M921.773 577.068C924.526 577.224 926.037 576.875 928.221 578.629C929.639 582.83 927.063 589.435 926.067 593.778C923.832 592.805 921.687 592.004 919.261 591.646C915.264 591.055 911.982 590.891 908.59 593.449C906.567 600.025 906.371 630.032 909.233 636.179C909.315 636.355 909.408 636.524 909.494 636.698C909.653 637.016 909.801 637.34 909.973 637.652C910.086 637.856 910.208 638.055 910.325 638.256C905.969 640.374 895.808 639.037 890.75 638.949C889.622 638.779 889.575 638.836 888.822 637.998C889.05 637.314 889.245 636.635 889.453 635.946C892.554 625.708 893.202 589.596 889.094 579.951L888.924 579.56L889.499 578.149C893.919 577.217 899.577 576.362 903.642 578.896C905.747 580.208 906.196 582.234 906.665 584.495L906.829 585.317C911 584.701 915.129 578.894 921.773 577.068Z"/>
		<path fill="white" transform="scale(1.01074 1.01074)" d="M874.704 577.032C877.879 577.223 879.01 576.7 881.209 579.111C881.803 582.787 882.328 586.398 880.559 589.852C877.84 595.161 870.581 589.898 864.746 592.383C862.893 593.171 862.073 594.002 861.447 595.862C859.768 600.85 860.344 631.405 862.862 635.48C863.594 636.665 863.953 636.972 863.777 638.461C858.098 640.195 849.379 639.028 843.327 638.953L842.608 637.986C845.68 629.566 845.76 595.837 844.509 586.303C844.144 583.519 843.008 580.886 841.903 578.325C844.337 576.765 846.916 575.841 849.839 576.37C854.145 577.15 856.977 580.508 859.459 583.795C860.072 584.607 860.502 585.091 861.416 585.599C865.523 581.157 868.9 578.931 874.704 577.032Z"/>
		<path fill="white" transform="scale(1.01074 1.01074)" d="M1211.99 577.499C1213.99 577.442 1217.09 577.264 1218.87 578.175C1221.24 579.389 1221.72 583.204 1222.53 585.592C1225.2 585.12 1231.3 579.078 1233.83 577.31C1236.54 575.415 1238.45 574.665 1241.68 575.241C1242.75 576.333 1243.33 577.12 1243.73 578.624C1244.61 581.957 1245 585.525 1243.16 588.574C1240.07 591.41 1233.86 590.76 1229.85 591.621C1216.8 594.422 1227 614.936 1221.47 623.52C1223.64 626.998 1224.95 634.189 1225.99 638.319C1225.24 638.567 1224.47 638.799 1223.69 638.921C1219.1 639.638 1208.4 640.263 1204.71 637.728C1209.23 629.455 1207.97 590.332 1205.69 579.992L1205.47 579.062C1206.56 577.663 1210.17 577.744 1211.99 577.499Z"/>
		<path fill="white" transform="scale(1.01074 1.01074)" d="M998.997 578.26C1004.86 577.873 1010.82 578.194 1016.69 578.296C1018.45 597.267 1013.25 620.451 1019.56 638.37L1018.13 638.956C1012.37 638.96 1004.62 640 999.228 638.149C999.466 637.503 999.686 636.797 999.986 636.176C1000.42 635.274 1000.92 634.477 1001.24 633.511C1003.7 626.145 1002.81 593.347 1001.47 584.849C1001.11 582.525 1000.05 580.341 998.997 578.26Z"/>
		<path fill="white" transform="scale(1.01074 1.01074)" d="M1005.81 555.951C1007.17 555.99 1008.54 556.039 1009.89 556.213C1012.63 556.566 1015.69 558.073 1017.16 560.499C1018.49 562.702 1018.64 564.907 1017.77 567.308C1016.67 570.343 1013.7 571.813 1011.06 573.276C1009.55 573.258 1007.97 573.255 1006.48 572.968C1003.92 572.476 1001.38 570.637 999.962 568.454C998.634 566.401 998.58 563.949 999.327 561.688C1000.31 558.726 1003.28 557.342 1005.81 555.951Z"/>
	</g>
	<g/>
</svg>
